# xmcd
#
# Track frame offsets:
#	150
#	12315
#	25393
#	45453
#	61800
#	73245
#	87200
#	103653
#	117215
#	130245
#
# Disc length: 1929 seconds
#
# Revision: 2
# Processed by: cddbd v1.5.1PL0 Copyright (c) Steve Scherf et al.
# Submitted via: dBpowerAMP V4.0
#
DISCID=8207870a
DTITLE=The Moffatts - The Moffatts (limited edition)
DYEAR=1995
DGENRE=country
TTITLE0=I Think She Likes Me
TTITLE1=This Boy
TTITLE2=Guns Of Love
TTITLE3=Mama Never Told Me 'Bout You
TTITLE4=Just Thinkin' About You
TTITLE5=When God Made You
TTITLE6=Caterpillar Crawl
TTITLE7=You Are What You Do
TTITLE8=A Little Something
TTITLE9=Don't Judge This Book
EXTD=
EXTT0=
EXTT1=
EXTT2=
EXTT3=
EXTT4=
EXTT5=
EXTT6=
EXTT7=
EXTT8=
EXTT9=
PLAYORDER=
